<svg width="22" height="18" viewBox="0 0 22 18" fill="none" xmlns="http://www.w3.org/2000/svg">
<ellipse cx="8" cy="15" rx="8" ry="3" fill="#4E5C93"/>
<rect y="11" width="16" height="4" fill="#4E5C93"/>
<ellipse cx="8" cy="11" rx="8" ry="3" fill="#FDFDFD"/>
<ellipse cx="8" cy="10" rx="8" ry="3" fill="#4E5C93"/>
<rect y="6" width="16" height="4" fill="#4E5C93"/>
<ellipse cx="8" cy="6" rx="8" ry="3" fill="#FDFDFD"/>
<ellipse cx="8" cy="5" rx="8" ry="3" fill="#4E5C93"/>
<rect y="3" width="16" height="2" fill="#4E5C93"/>
<ellipse cx="8" cy="3" rx="8" ry="3" fill="#4E5C93"/>
<circle cx="14" cy="10" r="8" fill="#FDFDFD"/>
<circle cx="14" cy="10" r="7" fill="#4E5C93"/>
<path d="M13.612 15.96V14.916C12.496 14.808 11.968 14.604 11.476 14.136C11.044 13.704 10.84 13.236 10.696 12.336L11.692 12.18C11.752 12.876 11.884 13.224 12.208 13.56C12.544 13.908 12.94 14.076 13.612 14.124V10.608C12.688 10.404 12.316 10.272 11.86 9.984C11.284 9.624 10.948 8.964 10.948 8.22C10.948 7.416 11.308 6.732 11.956 6.312C12.388 6.024 12.784 5.904 13.612 5.808V5.22H14.26V5.82C15.232 5.928 15.7 6.12 16.18 6.588C16.6 6.996 16.768 7.344 16.924 8.076L15.952 8.256C15.856 7.68 15.712 7.38 15.388 7.092C15.088 6.804 14.812 6.696 14.26 6.612V9.816C15.352 10.068 15.832 10.248 16.24 10.548C16.84 10.98 17.104 11.556 17.104 12.36C17.104 13.296 16.744 13.992 16.048 14.436C15.58 14.736 15.16 14.844 14.26 14.928V15.96H13.612ZM13.612 9.708V6.612C13.024 6.684 12.736 6.78 12.436 7.008C12.088 7.272 11.872 7.716 11.872 8.184C11.872 8.76 12.148 9.168 12.724 9.444C12.964 9.552 13.168 9.612 13.612 9.708ZM14.26 10.728V14.136C14.884 14.064 15.184 13.968 15.52 13.716C15.916 13.428 16.144 12.948 16.144 12.372C16.144 11.844 15.952 11.46 15.58 11.184C15.34 11.016 15.088 10.932 14.26 10.728Z" fill="#FDFDFD"/>
</svg>
